<svg width="61" height="68" viewBox="0 0 61 68" fill="none" xmlns="http://www.w3.org/2000/svg">
<path d="M58.8974 9.23673V64.4979C58.8974 65.4242 58.5249 66.3126 57.862 66.9675C57.199 67.6225 56.2998 67.9905 55.3622 67.9905H28.1382C27.2006 67.9905 26.3014 67.6225 25.6385 66.9675C24.9755 66.3126 24.603 65.4242 24.603 64.4979V9.23673C24.603 8.31044 24.9755 7.42209 25.6385 6.7671C26.3014 6.11211 27.2006 5.74414 28.1382 5.74414H55.3622C56.2998 5.74414 57.199 6.11211 57.862 6.7671C58.5249 7.42209 58.8974 8.31044 58.8974 9.23673Z" fill="#6D6E71"/>
<path d="M57.4128 9.15405V63.7212C57.4119 63.9409 57.3671 64.1583 57.2811 64.3608C57.195 64.5634 57.0694 64.7472 56.9113 64.9017C56.7533 65.0563 56.5659 65.1785 56.36 65.2613C56.1541 65.3442 55.9336 65.3862 55.7113 65.3848H27.8294C27.6071 65.3862 27.3866 65.3442 27.1807 65.2613C26.9748 65.1785 26.7874 65.0563 26.6294 64.9017C26.4713 64.7472 26.3457 64.5634 26.2596 64.3608C26.1736 64.1583 26.1288 63.9409 26.1279 63.7212V9.15405C26.1288 8.93437 26.1736 8.71703 26.2596 8.51446C26.3457 8.3119 26.4713 8.12809 26.6294 7.97357C26.7874 7.81904 26.9748 7.69684 27.1807 7.61395C27.3866 7.53106 27.6071 7.48911 27.8294 7.49051H55.7113C55.9336 7.48911 56.1541 7.53106 56.36 7.61395C56.5659 7.69684 56.7533 7.81904 56.9113 7.97357C57.0694 8.12809 57.195 8.3119 57.2811 8.51446C57.3671 8.71703 57.4119 8.93437 57.4128 9.15405Z" fill="#6D6E71"/>
<path d="M55.284 8.07202H28.256C27.3447 8.07202 26.606 8.80186 26.606 9.70215V63.1722C26.606 64.0725 27.3447 64.8024 28.256 64.8024H55.284C56.1953 64.8024 56.934 64.0725 56.934 63.1722V9.70215C56.934 8.80186 56.1953 8.07202 55.284 8.07202Z" fill="white"/>
<path d="M59.8681 47.2802C57.08 44.8673 57.6394 42.7786 57.6394 42.7786C56.4513 43.0413 55.8611 43.5378 55.8611 43.5378C56.4127 44.5833 56.7063 45.7429 56.718 46.9218C56.7433 48.902 56.9785 50.3514 57.1445 50.7447C57.3105 51.138 57.8285 51.4804 57.8946 50.8905C57.9468 50.4296 57.9184 47.9218 58.5094 48.7334C58.8222 49.1617 58.4564 51.0112 58.2696 51.8107C57.9791 53.0582 59.4155 52.5024 60.4215 50.9163C60.423 50.9171 61.409 48.6142 59.8681 47.2802Z" fill="#FFC7AE"/>
<path d="M40.759 16.0761C39.9611 16.1878 39.1695 16.3399 38.3873 16.5317C36.7466 16.9386 34.8752 17.6182 34.1981 18.6978C34.0967 18.858 33.9676 19.0722 33.8093 19.3295C34.1705 23.4865 34.1167 27.689 34.1244 31.8839C34.2781 31.732 34.0959 32.3668 34.1151 32.347C34.1021 32.4792 33.3843 39.4082 33.0392 43.4102C33 43.8749 32.9685 44.2879 32.947 44.6372C32.751 48.022 30.7644 64.7735 30.7644 64.7735L39.5686 64.9018C39.5605 64.8516 39.5563 64.8008 39.5563 64.75C39.6239 63.5891 40.5699 47.9749 40.9081 39.4932C40.9849 37.5252 41.0341 35.9505 41.031 35.0432C41.031 34.8063 41.031 34.5466 41.031 34.2703C41.031 34.1321 41.031 33.9901 41.031 33.842C41.031 33.4738 41.031 33.079 41.031 32.6637C41.031 32.4146 41.031 32.158 41.0357 31.8945C41.0337 31.8606 41.0337 31.8267 41.0357 31.7928C41.0357 31.3851 41.0403 30.9576 41.0433 30.5203C41.0433 30.2097 41.0487 29.8893 41.051 29.5651C41.051 29.2075 41.051 28.8393 41.0579 28.4718C41.0618 28.1681 41.0656 27.8644 41.0656 27.5607C41.0656 27.257 41.0725 26.9533 41.0756 26.6458C41.0802 26.2368 41.0846 25.828 41.0887 25.4196C41.0887 25.3186 41.0887 25.2176 41.0925 25.1159C41.0925 24.9777 41.0925 24.8395 41.0925 24.7043C41.0925 24.5388 41.0925 24.3733 41.0925 24.2078C41.0977 23.6986 41.1038 23.199 41.111 22.709C41.111 22.6581 41.111 22.6111 41.111 22.5632V22.523C41.1179 22.1585 41.1217 21.804 41.1263 21.46C41.1263 21.4198 41.1263 21.3758 41.1263 21.3355C41.1263 21.1525 41.1302 20.9741 41.134 20.798C41.1417 20.0896 41.1494 19.4313 41.1571 18.8398C41.1571 18.7016 41.1571 18.5703 41.1625 18.4412C41.1678 18.3121 41.1625 18.1717 41.1671 18.0434V18.0365C41.1794 17.1581 41.1878 16.518 41.1909 16.2143C41.1909 16.089 41.1909 16.0222 41.1909 16.0222C41.1909 16.0222 41.0403 16.0374 40.759 16.0761Z" fill="#D1E7ED"/>
<path d="M43.3695 64.879L43.8306 64.7955C43.8306 64.7955 43.6101 46.3 42.8861 40.4476C42.8646 40.2494 42.8408 40.068 42.8147 39.9009C42.8085 39.8508 42.7985 39.8037 42.7924 39.7574C42.578 38.4196 42.6686 36.5685 42.9284 34.4996C43.5094 29.8681 44.9388 24.1736 45.6905 20.8845C45.8349 20.2361 45.9579 19.6826 46.0394 19.246C46.2138 18.3349 46.3091 17.6622 46.356 17.1634V17.1444C45.9811 17.6074 45.5345 18.009 45.0326 18.3342C44.5601 18.6449 44.0225 18.846 43.4602 18.9226C41.7641 19.12 41.1793 18.0115 41.1793 18.0115V18.0289V18.0358C41.1793 18.1641 41.1793 18.2954 41.1746 18.4336C41.17 18.5718 41.1746 18.6941 41.1693 18.8322C41.1693 19.0653 41.1616 19.3053 41.1593 19.5581C41.1593 19.9468 41.1549 20.3578 41.1462 20.7911C41.1462 20.9665 41.1416 21.1449 41.1385 21.3279C41.1385 21.7076 41.1308 22.1077 41.1232 22.5162V22.5564C41.1232 22.6042 41.1232 22.6513 41.1232 22.7022C41.1165 23.1912 41.1103 23.6907 41.1047 24.201C41.1047 24.3665 41.1047 24.532 41.1047 24.6975C41.1047 24.8327 41.1001 24.9709 41.1047 25.109C41.1047 25.2108 41.1047 25.3118 41.1009 25.4127C41.0973 25.8212 41.0929 26.23 41.0878 26.6389C41.0878 26.9426 41.0809 27.2464 41.0778 27.5539C41.0747 27.8614 41.0778 28.1613 41.0701 28.465C41.0701 28.8324 41.064 29.2007 41.0632 29.5583C41.0632 29.8825 41.0586 30.2029 41.0555 30.5134C41.0555 30.9523 41.0494 31.3782 41.0478 31.786C41.0459 31.8198 41.0459 31.8538 41.0478 31.8877C41.0478 32.1512 41.0425 32.4078 41.0432 32.6568C41.0432 33.0721 41.0432 33.467 41.0432 33.8352C41.0432 33.9833 41.0432 34.1252 41.0432 34.2634C41.0432 34.375 41.0432 34.4791 41.0432 34.5838C41.0432 34.7425 41.0432 34.8944 41.0432 35.0394C41.0432 35.9505 41.001 37.5214 40.9203 39.4894C40.9041 39.8751 40.8888 40.2745 40.8711 40.6868C40.7981 42.1035 40.7212 43.6729 40.6444 45.3129C40.3762 50.7135 40.0249 56.8742 39.799 60.8375C39.683 62.8548 39.5969 64.1319 39.5684 64.6262C39.5638 64.6733 39.5631 64.8001 39.5615 64.8304L43.3695 64.879Z" fill="#000066"/>
<path d="M55.8233 64.75L54.2709 39.6785C54.2709 39.6785 55.7165 17.9265 54.9995 17.5636C54.9836 17.5544 54.9672 17.5463 54.9503 17.5393C53.0167 16.6768 48.039 15.9805 46.5865 15.793C46.4597 15.7793 46.3559 15.7649 46.2906 15.755C46.2806 15.755 46.2737 15.755 46.2629 15.755C46.2522 15.755 46.236 15.755 46.2253 15.7505C46.2429 15.7603 46.2577 15.7744 46.2683 15.7915C46.2722 15.7915 46.2722 15.7915 46.2722 15.7915C46.3127 15.8509 46.339 15.9187 46.349 15.9897C46.3536 16.0064 46.3582 16.0269 46.3629 16.0496C46.3951 16.2539 46.4067 16.591 46.3559 17.1468V17.1635C46.3091 17.6623 46.2138 18.3358 46.0393 19.2461C45.9578 19.6827 45.8349 20.2332 45.6904 20.8846C45.6689 20.9871 45.6435 21.0896 45.6189 21.1959C44.8504 24.5245 43.4894 30.0079 42.9291 34.4996C42.6693 36.5656 42.5787 38.4197 42.7931 39.7575C42.7992 39.8038 42.8092 39.8509 42.8154 39.901C42.8415 40.0688 42.8653 40.2495 42.8868 40.4477C43.61 46.3 43.9797 64.7994 43.9797 64.7994L55.8233 64.75Z" fill="#D1E7ED"/>
<path d="M42.7963 39.7575C42.8024 39.8038 42.8124 39.8509 42.8185 39.901C43.2604 35.1093 45.1241 33.3638 46.562 31.0078L46.5804 30.9759C46.612 30.9243 46.6435 30.8719 46.6711 30.8195C46.8757 30.4792 47.0624 30.1287 47.2306 29.7694C48.9052 26.1956 47.3075 25.22 47.0508 24.2527C47.0423 24.2193 47.0339 24.1896 47.0285 24.1562C47.0111 24.0427 47.0246 23.9266 47.0677 23.8199C47.1976 23.4547 47.5995 23.0682 48.0076 22.6051C48.1167 22.4806 48.2251 22.3469 48.3296 22.2057C48.8068 21.5755 49.1803 20.8033 48.949 19.7799C48.763 18.9629 48.3734 18.2287 47.9499 17.6145C47.4751 16.9375 46.9126 16.3249 46.2769 15.7922C46.3175 15.8516 46.3437 15.9194 46.3537 15.9904C46.3583 16.0071 46.363 16.0276 46.3676 16.0504C46.3998 16.2546 46.4114 16.5917 46.3606 17.1475V17.1642C46.3138 17.6631 46.2185 18.3365 46.044 19.2469C45.9626 19.6834 45.8396 20.2339 45.6951 20.8853C44.9435 24.1729 43.5141 29.8659 42.9331 34.5004C42.6687 36.5656 42.578 38.4197 42.7963 39.7575Z" fill="#D1E7ED"/>
<path d="M38.7768 33.549C38.992 35.265 40.1601 37.917 40.9094 39.4887C40.9863 37.5207 41.0355 35.946 41.0324 35.0387C41.0324 34.8018 41.0324 34.5421 41.0324 34.2658C41.0324 34.1276 41.0324 33.9856 41.0324 33.8375C41.0324 33.4693 41.0324 33.0745 41.0324 32.6592C41.0324 32.4101 41.0324 32.1535 41.037 31.89C41.0351 31.8562 41.0351 31.8222 41.037 31.7883C41.037 31.3806 41.0416 30.9531 41.0447 30.5158C41.0447 30.2052 41.0501 29.8848 41.0524 29.5606C41.0524 29.203 41.0524 28.8348 41.0593 28.4673C41.0632 28.1636 41.067 27.8599 41.067 27.5562C41.067 27.2525 41.0739 26.9488 41.077 26.6413C41.0816 26.2328 41.0859 25.8241 41.09 25.4151C41.09 25.3141 41.09 25.2131 41.0939 25.1114C41.0939 24.9732 41.0939 24.835 41.0939 24.6999C41.0939 24.5343 41.0939 24.3688 41.0939 24.2033C41.099 23.6941 41.1052 23.1945 41.1123 22.7045C41.1123 22.6537 41.1123 22.6066 41.1123 22.5595C41.1139 22.5459 41.1139 22.5321 41.1123 22.5185C41.12 22.11 41.1254 21.7114 41.1277 21.3303C41.1277 21.1473 41.1315 20.9689 41.1354 20.7935C41.1431 20.0843 41.1508 19.4268 41.1584 18.8346C41.1584 18.6964 41.1584 18.565 41.1638 18.436C41.1692 18.3069 41.1638 18.1664 41.1684 18.0381V18.0313C41.1807 17.1528 41.1892 16.5128 41.1923 16.2091C41.1923 16.0838 41.1923 16.017 41.1923 16.017C41.1929 16.0192 41.1929 16.0216 41.1923 16.0238C41.1769 16.0481 41.1108 16.1498 41.007 16.3138C40.3077 17.4284 37.9038 21.3933 38.1728 22.7281C38.4925 24.2853 39.8381 24.8889 39.4762 26.5935C39.1142 28.298 38.4517 30.982 38.7768 33.549Z" fill="#D1E7ED"/>
<path d="M53.0867 49.7797L52.85 52.4075L47.1522 52.7188L47.0415 50.7424L53.0867 49.7797Z" fill="#000066"/>
<path d="M36.3169 50.6968L35.8135 52.4955L32.6211 51.7849L33.3397 50.1426L36.3169 50.6968Z" fill="#000066"/>
<path d="M46.2223 15.7474C46.2399 15.7573 46.2547 15.7714 46.2653 15.7884C46.2653 15.7831 46.2607 15.771 46.2569 15.752C46.2431 15.752 46.23 15.752 46.2192 15.7474H46.2223Z" fill="black"/>
<path d="M38.3872 16.537C39.1694 16.3452 39.961 16.1932 40.7589 16.0815C41.0402 16.0428 41.2031 16.0238 41.2031 16.0238L41.1839 14.5812C41.1839 14.5812 40.8204 14.4901 40.0357 13.6587C39.2511 12.8273 37.9231 6.49279 37.9231 6.49279C37.9231 6.49279 38.4134 6.10177 38.8822 5.25899C39.351 4.41622 39.3717 3.88246 39.3717 3.88246C39.3717 3.88246 44.1304 6.99542 45.1733 7.33481C46.2161 7.6742 47.5388 7.04629 47.674 8.2611C47.7862 9.26484 47.2129 9.66649 46.2453 10.7317C45.3385 11.7324 46.1616 15.3351 46.2599 15.752C46.2707 15.752 46.2776 15.752 46.2876 15.752C46.3568 15.7618 46.4567 15.7763 46.5835 15.7899C47.3958 15.8939 49.3202 16.1597 51.1877 16.5234C52.6594 16.8104 54.0958 17.1535 54.9473 17.5355C54.9642 17.5425 54.9806 17.5506 54.9965 17.5598C55.0941 17.611 55.1865 17.6716 55.2724 17.7405C55.6874 18.076 56.1254 18.6926 56.5596 19.4989C56.7902 19.9286 56.7979 20.4396 57.0254 20.9643C57.5487 22.684 57.8131 24.0636 57.7554 23.5093C57.6017 22.0113 59.3486 21.9961 58.9174 17.4405C58.6339 14.4445 55.2286 14.6973 54.6691 12.2776C54.1096 9.85783 52.7478 7.40618 50.0165 3.59394C48.504 1.48016 46.0348 0.0193445 43.4072 0.00719631C43.0073 0.00384431 42.6078 0.0358611 42.2137 0.102863C38.3965 0.736845 37.4627 3.20292 36.4928 6.6902C35.6029 9.91857 37.2714 13.689 38.3872 16.537Z" fill="black"/>
<path d="M53.3772 26.8926C53.3772 26.8926 53.3772 26.8926 53.3772 26.8857C53.4064 26.986 53.4364 27.0816 53.4656 27.1819C53.4256 27.0315 53.3895 26.9321 53.3772 26.8926Z" fill="#EBF4F7"/>
<path d="M45.2635 44.294C45.3835 43.956 45.2035 43.586 44.8614 43.4675C44.5194 43.349 44.1448 43.5268 44.0249 43.8647C43.9049 44.2026 44.0849 44.5727 44.4269 44.6912C44.769 44.8097 45.1435 44.6319 45.2635 44.294Z" fill="#C6DFE5"/>
<path d="M45.2197 48.3069C45.3394 47.9702 45.1601 47.6015 44.8194 47.4834C44.4787 47.3652 44.1055 47.5423 43.9859 47.8789C43.8663 48.2155 44.0455 48.5842 44.3862 48.7024C44.7269 48.8206 45.1001 48.6435 45.2197 48.3069Z" fill="#C6DFE5"/>
<path d="M54.9996 17.5613C54.9996 17.5613 50.6191 17.7549 52.3682 22.8966C54.1174 28.0383 55.4423 36.8343 55.4423 36.8343L54.9973 46.2021L59.1235 45.7511C59.1235 45.7511 60.8903 24.7788 54.9996 17.5613Z" fill="#D1E7ED"/>
<path d="M37.9231 6.48975C37.9231 6.48975 39.2519 12.828 40.0358 13.6556C40.8196 14.4832 41.1824 14.5781 41.1824 14.5781L41.2016 16.0207L41.2715 16.1726C41.2715 16.1726 41.2454 16.1847 41.1985 16.2106C41.1985 16.2379 41.1985 16.2683 41.1985 16.2986C41.1985 16.6289 41.1862 17.234 41.1762 18.0343V18.0168C41.1762 18.0168 41.7611 19.1223 43.4572 18.9279C45.1533 18.7336 46.3553 17.1444 46.3553 17.1444C46.406 16.5887 46.3945 16.2515 46.3622 16.0473C46.3071 16.007 46.249 15.9707 46.1885 15.9387L46.2692 15.7869C46.2692 15.7869 46.2692 15.7869 46.2654 15.7869C46.2548 15.7698 46.24 15.7557 46.2223 15.7459C46.2331 15.7459 46.2462 15.7459 46.26 15.7504C46.1931 15.4703 45.7989 13.7543 45.8242 12.3528C45.8327 11.8972 45.8834 11.4682 46.0087 11.1379C46.0087 11.1379 46.0087 11.1311 46.0087 11.1281C46.057 10.9901 46.1296 10.8615 46.2231 10.7484C46.2392 10.7272 46.2423 10.7241 46.2423 10.7241C47.2076 9.66118 48.0868 8.97785 47.8562 7.96347C47.5818 6.77447 46.2169 7.65977 45.1733 7.32418C44.1297 6.98859 39.3718 3.87183 39.3718 3.87183C39.3718 3.87183 39.351 4.40331 38.8822 5.24836C38.4134 6.09342 37.9231 6.48975 37.9231 6.48975Z" fill="#FFC7AE"/>
<path d="M41.1985 16.2986C41.7142 16.2431 43.2182 16.0093 44.3256 15.0541C45.0296 14.4467 45.5191 13.3078 45.8242 12.3542C45.8327 11.8987 45.8834 11.4697 46.0087 11.1394C45.8411 11.4431 45.5568 11.9678 45.0864 12.8705C44.032 14.875 41.1824 14.5781 41.1824 14.5781L41.2016 16.0207L41.2715 16.1725C41.2715 16.1725 41.2454 16.1847 41.1985 16.2105C41.1985 16.2378 41.2001 16.2682 41.1985 16.2986Z" fill="#ED8772"/>
<path d="M46.545 8.51248C46.479 8.51979 46.4167 8.54627 46.3659 8.58856C46.3152 8.63086 46.2782 8.68707 46.2598 8.7501C46.2413 8.81314 46.2422 8.88015 46.2623 8.94268C46.2825 9.00521 46.3209 9.06045 46.3728 9.10141C46.4246 9.14237 46.4876 9.16721 46.5538 9.1728C46.62 9.17839 46.6863 9.16448 46.7445 9.13281C46.8027 9.10115 46.85 9.05316 46.8806 8.99491C46.9112 8.93666 46.9235 8.87077 46.9162 8.80556C46.9062 8.71813 46.8615 8.6382 46.7919 8.58327C46.7223 8.52834 46.6335 8.50288 46.545 8.51248Z" fill="#2B3990"/>
<path d="M46.582 9.2117C46.4864 9.21152 46.3945 9.17519 46.3252 9.11018C46.2558 9.04517 46.2143 8.95641 46.2091 8.8621C46.2038 8.76779 46.2354 8.67508 46.2971 8.603C46.3589 8.53092 46.4463 8.48493 46.5413 8.47446C46.6392 8.4652 46.7368 8.49436 46.8131 8.55563C46.8894 8.61691 46.9382 8.70537 46.949 8.80191C46.9598 8.89846 46.9317 8.99532 46.8708 9.07157C46.8099 9.14782 46.7211 9.19734 46.6235 9.20943L46.582 9.2117ZM46.5498 8.55039C46.4913 8.55675 46.436 8.58011 46.391 8.6175C46.3459 8.65489 46.3131 8.70464 46.2967 8.76046C46.2803 8.81627 46.281 8.87565 46.2987 8.93107C46.3165 8.98649 46.3505 9.03546 46.3964 9.0718C46.4423 9.10813 46.4981 9.1302 46.5567 9.1352C46.6153 9.1402 46.6741 9.12792 46.7257 9.0999C46.7772 9.07188 46.8192 9.02938 46.8463 8.97779C46.8734 8.9262 46.8844 8.86783 46.8779 8.81005C46.8692 8.73264 46.8298 8.66181 46.7682 8.61312C46.7067 8.56443 46.6281 8.54186 46.5498 8.55039Z" fill="#2B3990"/>
<path d="M58.8884 43.9425C58.9216 43.8491 58.8718 43.7468 58.7773 43.7141C58.6828 43.6813 58.5793 43.7305 58.5461 43.8238C58.513 43.9172 58.5627 44.0195 58.6572 44.0522C58.7518 44.085 58.8553 44.0358 58.8884 43.9425Z" fill="#C6DFE5"/>
<path d="M58.9687 44.658C59.0019 44.5647 58.9521 44.4624 58.8576 44.4296C58.7631 44.3969 58.6596 44.446 58.6264 44.5394C58.5933 44.6328 58.643 44.7351 58.7375 44.7678C58.8321 44.8006 58.9356 44.7514 58.9687 44.658Z" fill="#C6DFE5"/>
<path d="M58.7283 42.5087C58.7614 42.4154 58.7117 42.3131 58.6171 42.2803C58.5226 42.2476 58.4191 42.2967 58.386 42.3901C58.3528 42.4835 58.4026 42.5858 58.4971 42.6185C58.5916 42.6513 58.6951 42.6021 58.7283 42.5087Z" fill="#C6DFE5"/>
<path d="M58.8083 43.2257C58.8415 43.1323 58.7917 43.03 58.6972 42.9973C58.6027 42.9645 58.4992 43.0137 58.466 43.107C58.4329 43.2004 58.4826 43.3027 58.5772 43.3354C58.6717 43.3682 58.7752 43.319 58.8083 43.2257Z" fill="#C6DFE5"/>
<path d="M13.6529 28.6656C13.7432 28.6227 13.7812 28.5156 13.7378 28.4264C13.6944 28.3372 13.586 28.2997 13.4957 28.3425C13.4055 28.3854 13.3675 28.4925 13.4108 28.5817C13.4542 28.6709 13.5626 28.7084 13.6529 28.6656Z" fill="#C6DFE5"/>
<path d="M13.0833 28.2144C13.1736 28.1715 13.2116 28.0644 13.1682 27.9753C13.1248 27.8861 13.0164 27.8485 12.9262 27.8914C12.8359 27.9342 12.7979 28.0413 12.8413 28.1305C12.8847 28.2197 12.993 28.2572 13.0833 28.2144Z" fill="#C6DFE5"/>
<path d="M14.7918 29.5668C14.8821 29.5239 14.9201 29.4169 14.8767 29.3277C14.8333 29.2385 14.7249 29.2009 14.6347 29.2438C14.5444 29.2867 14.5064 29.3937 14.5498 29.4829C14.5932 29.5721 14.7015 29.6097 14.7918 29.5668Z" fill="#C6DFE5"/>
<path d="M14.2222 29.1155C14.3125 29.0726 14.3505 28.9656 14.3071 28.8764C14.2637 28.7872 14.1554 28.7496 14.0651 28.7925C13.9748 28.8354 13.9368 28.9424 13.9802 29.0316C14.0236 29.1208 14.1319 29.1584 14.2222 29.1155Z" fill="#C6DFE5"/>
<path d="M41.4392 15.5022C41.4241 15.5032 41.4089 15.5011 41.3945 15.4963C41.3802 15.4914 41.3669 15.4839 41.3556 15.4739C41.3326 15.4539 41.3186 15.4257 41.3166 15.3955C41.3147 15.3653 41.325 15.3356 41.3452 15.3129C41.3655 15.2902 41.394 15.2763 41.4246 15.2744C43.4743 15.0186 44.9467 13.9131 45.8006 11.9876C46.1921 11.0878 46.4198 10.1267 46.473 9.14872C46.4736 9.11891 46.486 9.09053 46.5076 9.06966C46.5291 9.04879 46.5581 9.0371 46.5883 9.03711C46.6034 9.0372 46.6184 9.04028 46.6323 9.04616C46.6462 9.05205 46.6588 9.06061 46.6693 9.07136C46.6798 9.08211 46.6881 9.09482 46.6936 9.10876C46.6991 9.12269 46.7017 9.13757 46.7013 9.15252C46.6503 10.161 46.416 11.1522 46.0096 12.0787C45.3948 13.4568 44.1121 15.1689 41.4515 15.5007L41.4392 15.5022Z" fill="#2B3990"/>
<path d="M41.4982 15.4163C41.4822 15.4164 41.4665 15.413 41.4521 15.4065C39.2087 14.4407 38.7277 10.8904 38.7084 10.7401C38.7065 10.7251 38.7076 10.7099 38.7116 10.6954C38.7156 10.6808 38.7225 10.6672 38.7319 10.6553C38.7412 10.6434 38.7529 10.6334 38.7661 10.6259C38.7794 10.6185 38.794 10.6136 38.8091 10.6118C38.8243 10.6099 38.8396 10.6109 38.8543 10.6149C38.8691 10.6189 38.8828 10.6257 38.8949 10.6349C38.907 10.6441 38.9171 10.6556 38.9246 10.6687C38.9322 10.6818 38.9371 10.6963 38.939 10.7112C38.9436 10.7469 39.4224 14.2797 41.5458 15.1977C41.5703 15.208 41.5905 15.2264 41.6028 15.2497C41.6152 15.2731 41.6189 15.2999 41.6135 15.3257C41.6081 15.3515 41.5937 15.3746 41.573 15.3911C41.5523 15.4076 41.5263 15.4166 41.4997 15.4163H41.4982Z" fill="#2B3990"/>
<path d="M6.31467 21.3408C5.96423 21.1267 5.57689 21.3743 5.3571 21.4927C4.95901 21.7091 4.32882 22.6506 4.22661 22.8837C4.05062 23.3005 4.0998 23.9368 4.45716 24.2815C4.73844 24.551 4.93441 24.5221 5.29792 24.4105C5.66143 24.2989 5.97653 23.9816 6.22015 23.6794C6.39133 23.4756 6.52857 23.2462 6.62669 22.9998C6.86801 22.3431 6.87031 21.6795 6.31467 21.3408Z" fill="#D8E6EA"/>
<path d="M5.52323 19.2279C5.15204 17.3859 2.82112 17.1019 2.82112 17.1019C1.06506 17.1649 -0.0531389 18.0487 1.09656 18.3927C1.83511 18.6151 3.50894 19.1808 3.70953 19.628C4.09379 20.4746 2.0672 19.2901 1.66834 19.1178C1.15728 18.8968 1.19647 19.467 1.43779 19.7814C1.6791 20.0957 2.75119 20.9544 4.35124 21.8921C5.9513 22.8298 7.19476 25.3642 7.19476 25.3642C7.19476 25.3642 8.19845 24.7014 8.51815 23.7234C8.52814 23.7265 6.19645 22.5602 5.52323 19.2279Z" fill="#FFC7AE"/>
<path d="M40.9626 15.9661C40.9626 15.9661 36.8741 16.1392 34.0352 17.5673C33.665 17.753 33.3714 18.0597 33.2044 18.4352C31.9318 21.3204 18.4796 34.4851 6.52224 21.7266C6.52224 21.7266 7.4998 23.9603 4.57251 24.4424C4.57251 24.4424 15.3041 34.4373 26.6421 31.9287C32.8978 30.5454 36.6766 23.4782 36.6766 23.4782L38.8 17.2864L40.9626 15.9661Z" fill="#D1E7ED"/>
<path d="M6.4676 25.6101C6.56607 25.6101 6.6459 25.5312 6.6459 25.434C6.6459 25.3367 6.56607 25.2578 6.4676 25.2578C6.36913 25.2578 6.28931 25.3367 6.28931 25.434C6.28931 25.5312 6.36913 25.6101 6.4676 25.6101Z" fill="#C6DFE5"/>
<path d="M5.84211 25.2647C5.94059 25.2647 6.02041 25.1858 6.02041 25.0885C6.02041 24.9912 5.94059 24.9124 5.84211 24.9124C5.74364 24.9124 5.66382 24.9912 5.66382 25.0885C5.66382 25.1858 5.74364 25.2647 5.84211 25.2647Z" fill="#C6DFE5"/>
<path d="M7.71956 26.3011C7.81803 26.3011 7.89785 26.2223 7.89785 26.125C7.89785 26.0277 7.81803 25.9489 7.71956 25.9489C7.62109 25.9489 7.54126 26.0277 7.54126 26.125C7.54126 26.2223 7.62109 26.3011 7.71956 26.3011Z" fill="#C6DFE5"/>
<path d="M7.09407 25.9557C7.19254 25.9557 7.27236 25.8768 7.27236 25.7795C7.27236 25.6823 7.19254 25.6034 7.09407 25.6034C6.9956 25.6034 6.91577 25.6823 6.91577 25.7795C6.91577 25.8768 6.9956 25.9557 7.09407 25.9557Z" fill="#C6DFE5"/>
<path d="M31.3452 45.0571C30.5259 45.0587 29.7098 44.9566 28.9167 44.7534C27.5956 44.4124 26.5835 43.8134 25.9064 42.9736C25.7833 42.8211 25.6711 42.6603 25.5706 42.4923C24.8519 42.7062 24.1104 42.8364 23.3611 42.8803C18.6547 43.2067 13.1659 40.8743 8.67549 36.6392C6.36839 34.4555 4.45478 31.8892 3.146 29.2045C1.72347 26.2874 1.03795 23.3491 1.10788 20.473C1.1086 20.4428 1.12143 20.4141 1.14355 20.3932C1.16567 20.3724 1.19528 20.3611 1.22585 20.3618C1.25643 20.3625 1.28546 20.3751 1.30658 20.397C1.32769 20.4189 1.33915 20.4481 1.33844 20.4783C1.20549 25.9412 4.00674 31.9204 8.83226 36.4729C13.2766 40.6647 18.7016 42.9736 23.3427 42.6517C24.0582 42.6094 24.7667 42.4874 25.4546 42.288C24.9635 41.3564 24.7882 40.2008 24.9327 38.841C25.2232 36.1175 26.2554 35.8685 26.6857 35.8898C27.6932 35.9361 28.6278 37.3453 28.6462 38.8456C28.6573 39.3316 28.5622 39.8142 28.3673 40.2606C28.1725 40.707 27.8826 41.1067 27.5173 41.4324C27.0151 41.8742 26.427 42.2101 25.7889 42.4194C26.416 43.4398 27.477 44.1442 28.9721 44.5324C31.1 45.0839 33.3562 44.8823 35.3494 43.9626C37.3426 43.0429 38.9472 41.463 39.885 39.497C42.5533 33.8785 40.257 26.3967 39.5008 23.9367C38.7599 21.5238 39.3056 19.2984 39.8927 17.8566C40.5283 16.2971 41.326 15.3207 41.3598 15.2804C41.3791 15.257 41.407 15.242 41.4374 15.2389C41.4678 15.2358 41.4982 15.2447 41.522 15.2637C41.5457 15.2828 41.5608 15.3103 41.564 15.3404C41.5672 15.3704 41.5581 15.4005 41.5389 15.4239C41.5066 15.4626 38.3418 19.3721 39.7213 23.8707C40.2401 25.5616 40.9617 28.1362 41.2445 30.9561C41.5858 34.3591 41.1977 37.2648 40.0918 39.5942C39.307 41.2308 38.0679 42.6134 36.5186 43.5812C34.9693 44.549 33.1736 45.0622 31.3406 45.0609L31.3452 45.0571ZM26.635 36.1137C25.8842 36.1137 25.3485 37.1114 25.1625 38.8623C25.0196 40.2001 25.1899 41.3177 25.6736 42.2152C26.3553 41.9828 26.9193 41.6647 27.3605 41.2623C27.7019 40.9583 27.973 40.5851 28.1551 40.1681C28.3372 39.7512 28.426 39.3003 28.4157 38.8463C28.398 37.3521 27.465 36.1509 26.675 36.113L26.635 36.1137Z" fill="#2B3990"/>
<path d="M1.09507 20.7859C1.55261 20.7859 1.92353 20.1564 1.92353 19.3798C1.92353 18.6032 1.55261 17.9736 1.09507 17.9736C0.637517 17.9736 0.266602 18.6032 0.266602 19.3798C0.266602 20.1564 0.637517 20.7859 1.09507 20.7859Z" fill="#404E68"/>
<path d="M1.09505 20.3174C1.40022 20.3174 1.64761 19.8976 1.64761 19.3797C1.64761 18.8618 1.40022 18.442 1.09505 18.442C0.789872 18.442 0.54248 18.8618 0.54248 19.3797C0.54248 19.8976 0.789872 20.3174 1.09505 20.3174Z" fill="#8D929C"/>
<path d="M4.54017 20.6446C3.21217 19.9165 2.1032 19.3174 1.95027 19.262C1.4269 19.0706 1.42921 19.7312 1.69051 20.0303C1.9518 20.3295 3.07384 21.1252 4.72385 21.9695C6.37386 22.8138 6.75812 21.8594 4.54017 20.6446Z" fill="#FFC7AE"/>
</svg>
