<svg width="37" height="67" viewBox="0 0 37 67" fill="none" xmlns="http://www.w3.org/2000/svg">
<path d="M35.1229 8.23673V63.4979C35.1229 63.9566 35.0325 64.4107 34.857 64.8345C34.6815 65.2582 34.4242 65.6432 34.0999 65.9675C33.7756 66.2919 33.3906 66.5491 32.9669 66.7246C32.5431 66.9002 32.0889 66.9905 31.6303 66.9905H4.73429C3.808 66.9905 2.91965 66.6225 2.26466 65.9675C1.60967 65.3126 1.2417 64.4242 1.2417 63.4979V8.23673C1.2417 7.31044 1.60967 6.42209 2.26466 5.7671C2.91965 5.11211 3.808 4.74414 4.73429 4.74414H31.6303C32.0889 4.74414 32.5431 4.83448 32.9669 5.01C33.3906 5.18552 33.7756 5.44278 34.0999 5.7671C34.4242 6.09141 34.6815 6.47644 34.857 6.90018C35.0325 7.32392 35.1229 7.77808 35.1229 8.23673Z" fill="#6D6E71"/>
<path d="M33.6537 8.15405V62.7213C33.6528 62.941 33.6086 63.1584 33.5235 63.361C33.4385 63.5636 33.3143 63.7475 33.158 63.902C33.0018 64.0565 32.8166 64.1787 32.6131 64.2616C32.4096 64.3444 32.1917 64.3863 31.972 64.3848H4.42907C4.20933 64.3863 3.99146 64.3444 3.78793 64.2616C3.5844 64.1787 3.39922 64.0565 3.24299 63.902C3.08677 63.7475 2.96257 63.5636 2.87751 63.361C2.79245 63.1584 2.74821 62.941 2.74731 62.7213V8.15405C2.74821 7.93431 2.79245 7.71691 2.87751 7.51429C2.96257 7.31168 3.08677 7.12784 3.24299 6.9733C3.39922 6.81877 3.5844 6.69658 3.78793 6.61373C3.99146 6.53089 4.20933 6.48902 4.42907 6.49052H31.9742C32.1938 6.48932 32.4114 6.53141 32.6147 6.61439C32.818 6.69737 33.0029 6.81961 33.1589 6.97411C33.3148 7.12862 33.4388 7.31235 33.5237 7.51482C33.6087 7.71729 33.6528 7.9345 33.6537 8.15405Z" fill="#6D6E71"/>
<path d="M31.5529 7.07202H4.85047C3.95017 7.07202 3.22034 7.80186 3.22034 8.70215V62.1722C3.22034 63.0725 3.95017 63.8024 4.85047 63.8024H31.5529C32.4532 63.8024 33.183 63.0725 33.183 62.1722V8.70215C33.183 7.80186 32.4532 7.07202 31.5529 7.07202Z" fill="white"/>
<path d="M25.6488 24.45L17.792 28.4444L10.6025 21.1851L14.7595 19.8003C16.2226 19.6841 16.3782 18.527 16.5308 17.6508L16.259 14.6935H20.6772L21.0021 16.6509C21.3369 18.1382 21.2162 19.432 21.706 19.9916L25.6488 24.45Z" fill="#FFC7AE"/>
<path d="M16.5803 16.6L20.8913 16.6562C20.8913 16.6562 19.3242 19.1883 16.5712 19.76C12.1006 20.6871 13.8378 20.1829 13.8378 20.1829C13.8378 20.1829 16.253 18.9742 16.5803 16.6Z" fill="#FFC7AE"/>
<path d="M8.90491 45.0844H28.49V63.772H9.93598" fill="#F79D21"/>
<path d="M28.2918 29.2842C28.2918 29.3328 28.2918 29.3829 28.2918 29.4315C28.2455 31.4056 28.1104 33.2232 27.9213 34.1108C27.0565 38.1485 27.5508 42.7664 27.8165 45.2446C27.9388 46.3835 27.0846 46.5194 27.0072 46.5771C25.9396 47.3667 22.2565 47.2171 21.9027 47.1761C21.7599 47.1594 20.9916 47.0858 20.8298 47.0326C20.6165 46.9613 19.3181 46.9673 18.5862 46.9461C18.1709 46.9332 17.9439 46.8838 17.3334 46.7661L17.1376 46.7289C15.5735 46.4321 14.7922 46.284 14.3518 46.3007C13.3731 46.3379 13.2889 46.609 12.3246 46.5475C11.5836 46.4996 11.0202 46.4632 10.6102 45.9636C10.1159 45.3607 10.1273 44.4284 10.1546 43.4019C10.1805 42.3024 10.8114 37.775 10.3672 33.4153C10.1881 31.6622 10.6482 29.5621 10.1205 28.3283C9.49257 26.8591 8.53667 23.7727 8.84569 22.7424C9.0803 21.9649 10.7378 21.2383 12.9525 20.0326C13.5258 19.7213 14.0967 19.4252 14.5675 19.1868L14.6267 19.1572C15.2106 18.8664 15.6244 18.6804 15.6646 18.7016C15.8506 18.8056 17.5627 23.6664 18.2522 23.7636C18.7578 23.835 19.981 22.1008 21.2892 18.4852C21.3294 18.3729 21.8601 18.6037 22.5647 18.9712C22.6822 19.0329 22.8039 19.0975 22.9299 19.1648C23.9284 19.7046 25.0931 20.4084 25.5274 20.7463C26.8978 21.8093 27.0823 21.233 27.6533 21.829C28.1939 22.4007 28.3617 26.0285 28.2918 29.2842Z" fill="#F79D21"/>
<path d="M15.1088 20.9619C15.0762 21.4744 15.0633 22.0181 15.0633 22.567C15.0633 22.9019 15.0678 23.239 15.0747 23.5715C15.1043 25.0414 15.1802 26.4256 15.1278 27.1955C15.1278 27.2228 15.124 27.2494 15.1225 27.2752C15.0572 28.0443 14.9084 30.4094 14.7474 33.1336C14.7042 33.8694 14.6601 34.6301 14.6161 35.3939C14.5402 36.734 14.4642 38.0794 14.3967 39.2973C14.383 39.5403 14.3701 39.7779 14.3579 40.0087C14.3063 40.9737 14.2608 41.8309 14.2273 42.5143V42.575C14.1901 43.3396 14.1674 43.8658 14.1674 44.0404C14.1674 44.0799 14.1522 44.3487 14.1264 44.811C14.126 44.8136 14.126 44.8161 14.1264 44.8186C14.121 44.9173 14.1142 45.0259 14.1074 45.1421C14.0823 45.5787 14.0497 46.1352 14.0102 46.7904C13.8652 49.2254 13.6344 59.6287 13.3785 63.7978H7.38338C7.32796 63.7978 7.27709 57.1923 7.23153 57.1786C7.25482 56.7549 7.27886 56.3305 7.30366 55.9053C7.33555 55.3334 7.36769 54.7621 7.40009 54.1917L7.44109 53.4544C7.44109 53.4172 7.44564 53.3785 7.44716 53.3428C7.4583 53.1485 7.46918 52.9543 7.47981 52.7605C7.61268 50.4 7.74099 48.0842 7.85944 45.9127C7.87462 45.6333 7.88956 45.3567 7.90423 45.0829C7.92473 44.7078 7.94372 44.338 7.96346 43.9736C8.01964 42.9023 8.07203 41.878 8.11987 40.9145C8.23603 38.5692 8.32259 36.5814 8.36435 35.1495L8.3689 35.0052C8.38181 34.52 8.3894 34.1032 8.39168 33.7623V33.7502C8.39168 33.5178 8.39168 33.3212 8.38561 33.1632C8.38105 33.0167 8.37346 32.9028 8.36283 32.8261C8.32107 32.5224 8.21857 32.0221 8.07963 31.4094C8.01661 31.1269 7.94599 30.8194 7.87007 30.4944C7.85944 30.4504 7.84881 30.4064 7.83818 30.3608C7.80376 30.2135 7.76833 30.0629 7.73188 29.9091C7.6142 29.4095 7.48892 28.881 7.3644 28.3473C6.80179 25.926 6.25664 23.3901 6.47531 22.8419C6.56946 22.6057 6.88379 22.3362 7.35833 22.0416C8.37422 21.4099 10.1289 20.6613 12.0399 19.8785C12.68 19.6158 13.3375 19.3888 13.9039 19.2141C14.0489 19.1686 14.1871 19.1276 14.3177 19.0896C14.9251 18.9142 15.3632 18.817 15.4566 18.8246C15.4621 18.8249 15.4675 18.8262 15.4725 18.8284C15.4729 18.8299 15.4729 18.8315 15.4725 18.833C15.4665 18.8489 15.4604 18.8656 15.4551 18.8823C15.2622 19.4305 15.1597 20.1571 15.1088 20.9619Z" fill="#D7EEFF"/>
<path d="M30.1877 63.7994H24.2146C24.0149 61.4768 23.8008 52.3763 23.5738 49.6992C23.567 49.6232 23.5449 49.3856 23.5115 49.0234C23.4508 48.3674 23.3521 47.3022 23.2367 46.0464L23.2321 46.0031C23.1069 44.6433 22.9634 43.064 22.8282 41.5394C22.7978 41.2023 22.7682 40.8667 22.7401 40.5379C22.7287 40.4165 22.7189 40.295 22.7082 40.175C22.6895 39.9609 22.6713 39.7501 22.6536 39.5426C22.6536 39.5213 22.6536 39.5 22.6483 39.4795C22.6399 39.3816 22.6308 39.2844 22.6232 39.188C22.586 38.7567 22.5518 38.3452 22.5207 37.9618C22.4569 37.1797 22.4061 36.5131 22.3742 36.031C22.3521 35.6885 22.34 35.4395 22.34 35.3074C22.34 35.1153 22.34 34.9331 22.34 34.7585C22.34 34.4912 22.3354 34.2422 22.3309 34.006C22.3225 33.571 22.3111 33.18 22.299 32.8034C22.2906 32.5247 22.2808 32.2537 22.2724 31.978C22.2489 31.2066 22.2314 30.3988 22.2466 29.2827C22.2527 28.8362 22.28 28.2471 22.3119 27.6017C22.3878 26.1454 22.4812 24.4075 22.4053 23.4022C22.4 23.3263 22.3916 23.1995 22.3795 23.0332C22.3673 22.8669 22.3506 22.6771 22.3286 22.4486C22.2838 21.993 22.2155 21.419 22.1069 20.7691C22.0029 20.1458 21.8624 19.4541 21.6711 18.7388L21.6415 18.6295C21.6403 18.6255 21.6403 18.6213 21.6415 18.6174C21.6415 18.6098 21.6498 18.6052 21.6605 18.6022C21.6813 18.5988 21.7026 18.5988 21.7235 18.6022C21.8571 18.6196 22.1426 18.7168 22.5124 18.8603H22.5177L22.7454 18.9499L23.1251 19.1063C24.3141 19.6021 25.8721 20.3211 26.4347 20.6043C27.5424 21.1639 27.9722 21.2406 28.569 21.7637L28.6244 21.8131L28.6388 21.8268L28.654 21.8427C28.6775 21.8683 28.6986 21.896 28.717 21.9255C28.7212 21.931 28.725 21.9369 28.7284 21.9429C28.7304 21.9452 28.7319 21.9477 28.733 21.9505C28.733 21.9543 28.7375 21.9573 28.7398 21.9619C28.8032 22.0745 28.8541 22.1936 28.8917 22.3172C28.8917 22.3271 28.8977 22.3362 28.9015 22.3461C28.9228 22.4152 28.9433 22.4896 28.9638 22.5685C28.9691 22.5913 28.9752 22.6133 28.9797 22.6361C28.9949 22.6961 29.0086 22.7591 29.0222 22.8252C29.0268 22.8472 29.0314 22.8707 29.0359 22.8943C29.0405 22.9178 29.0458 22.9459 29.0511 22.9702C29.0564 22.9945 29.0594 23.0158 29.0632 23.0385C29.067 23.0613 29.0739 23.1016 29.0799 23.1334L29.0936 23.2185C29.0936 23.2352 29.0989 23.2526 29.1012 23.2693C29.1103 23.3248 29.1187 23.381 29.1263 23.4387V23.4523C29.1718 23.7849 29.2105 24.1539 29.2409 24.5495C29.2409 24.5745 29.2455 24.5996 29.247 24.6254L29.2584 24.7772C29.2667 24.8995 29.2743 25.024 29.2819 25.1508C29.2819 25.1812 29.2819 25.2123 29.2872 25.2427C29.2925 25.273 29.2872 25.2882 29.2872 25.311C29.2872 25.3452 29.291 25.3793 29.2933 25.4143C29.2933 25.4636 29.2933 25.513 29.3001 25.5661L29.307 25.7293C29.307 25.7719 29.3108 25.8151 29.3123 25.8577L29.3191 26.0589V26.1424C29.3191 26.1978 29.3191 26.254 29.3237 26.3102V26.3945C29.3449 27.219 29.3426 28.083 29.3237 28.9205C29.3237 28.9668 29.3237 29.0139 29.3199 29.0602C29.3199 29.0875 29.3199 29.1149 29.3199 29.1422C29.2591 30.991 28.8491 32.6637 28.9152 33.5193C28.9327 33.7395 28.9494 33.9643 28.9668 34.1943C28.9795 34.3695 28.9924 34.5466 29.0055 34.7258C29.0883 35.889 29.1718 37.1638 29.2538 38.5221C29.3297 39.7643 29.4057 41.0778 29.4816 42.4422C29.4922 42.6446 29.5031 42.8471 29.5142 43.0496C29.5395 43.5203 29.5649 43.9964 29.5902 44.4777C29.6155 44.9591 29.6408 45.4529 29.6661 45.9591C29.6767 46.1777 29.6881 46.3979 29.6987 46.6181C29.8141 48.9422 29.9265 51.3475 30.0343 53.7491C30.0852 54.9046 30.1376 62.6567 30.1877 63.7994Z" fill="#D7EEFF"/>
<path d="M14.5803 11.0665C14.5803 11.9905 14.099 12.7369 13.506 12.7369C12.913 12.7369 12.4316 11.9882 12.4316 11.0665C12.4316 10.1447 12.913 9.39612 13.506 9.39612C14.099 9.39612 14.5803 10.1463 14.5803 11.0665Z" fill="#FFC7AE"/>
<path d="M13.9539 11.0665C13.9539 11.4522 13.7535 11.7643 13.506 11.7643C13.2584 11.7643 13.058 11.4522 13.058 11.0665C13.058 10.6808 13.2584 10.3688 13.506 10.3688C13.7535 10.3688 13.9539 10.6816 13.9539 11.0665Z" fill="#FFC7AE"/>
<path d="M25.0566 11.0665C25.0566 11.9905 24.5479 12.7369 23.9177 12.7369C23.2875 12.7369 22.7788 11.9882 22.7788 11.0665C22.7788 10.1447 23.2875 9.39612 23.9177 9.39612C24.5479 9.39612 25.0566 10.1463 25.0566 11.0665Z" fill="#FFC7AE"/>
<path d="M24.3946 11.0665C24.3946 11.4522 24.1828 11.7643 23.9208 11.7643C23.6589 11.7643 23.4463 11.4522 23.4463 11.0665C23.4463 10.6808 23.6589 10.3688 23.9208 10.3688C24.1828 10.3688 24.3946 10.6816 24.3946 11.0665Z" fill="#FFC7AE"/>
<path d="M23.9162 11.0756C23.9162 14.9614 20.7562 18.1367 18.6439 18.1108C16.8004 18.0888 13.3708 14.9614 13.3708 11.0756C13.3708 7.18966 15.7314 4.04102 18.6439 4.04102C21.5564 4.04102 23.9162 7.19042 23.9162 11.0756Z" fill="#FFC7AE"/>
<path d="M16.0047 4.33494C16.8688 4.77303 15.2834 5.41233 14.6646 6.96957C14.0458 8.52681 13.6237 10.1121 13.2714 9.24127C12.7733 8.01127 12.7483 7.37729 12.8272 5.62796C12.9821 2.16953 15.1407 3.8976 16.0047 4.33494Z" fill="#231F20"/>
<path d="M23.226 4.87327C23.9663 4.74192 24.7225 5.66669 24.9154 6.93921C25.1082 8.21173 24.4947 9.86388 23.9283 9.48197C23.1243 8.94214 23.5487 8.68627 22.8912 7.56712C22.097 6.22703 22.4865 5.00462 23.226 4.87327Z" fill="#231F20"/>
<path d="M26.9039 26.1454C26.8616 26.1608 26.8182 26.1727 26.7741 26.1811C26.7291 26.1888 26.6837 26.1931 26.6381 26.194C26.6154 26.194 26.5926 26.194 26.5698 26.194C26.5468 26.193 26.5239 26.1897 26.5015 26.1841C26.4793 26.1782 26.4577 26.1704 26.4369 26.1606C26.4263 26.156 26.4157 26.15 26.4058 26.1447C26.3957 26.1388 26.3861 26.1322 26.377 26.1249V26.1204H26.4111L26.4438 26.1249H26.4764L26.5091 26.1295C26.5303 26.1295 26.5516 26.1355 26.5728 26.1393C26.5942 26.1435 26.6157 26.1466 26.6374 26.1485C26.6811 26.1515 26.725 26.1515 26.7687 26.1485C26.8131 26.1458 26.8572 26.1404 26.9008 26.1325L26.9039 26.1454Z" fill="#DFB28B"/>
<path d="M26.954 25.8463C26.9295 25.884 26.9021 25.9198 26.872 25.9533C26.841 25.9867 26.8075 26.0177 26.7718 26.046L26.7171 26.087C26.6981 26.1003 26.6778 26.1115 26.6564 26.1204C26.635 26.1291 26.6129 26.136 26.5903 26.1409C26.5791 26.1437 26.5677 26.1457 26.5561 26.1469C26.5448 26.1477 26.5333 26.1477 26.522 26.1469V26.1424C26.5311 26.1356 26.541 26.1302 26.5508 26.1242L26.5797 26.1075C26.5888 26.1014 26.5987 26.0968 26.6085 26.0908L26.6366 26.0748C26.6548 26.0642 26.6738 26.0536 26.6936 26.0444C26.7133 26.0353 26.7323 26.0239 26.7505 26.0126C26.7874 25.9897 26.8226 25.9643 26.856 25.9366C26.8901 25.9081 26.9221 25.8771 26.9517 25.844L26.954 25.8463Z" fill="#DFB28B"/>
<path d="M21.3431 1.04123C18.7426 0.357893 17.2431 0.972892 16.4838 1.52791C15.9782 1.89297 15.4322 2.19868 14.8567 2.43902C12.0634 3.62119 12.9753 7.75384 12.9753 7.75384C13.8469 7.7098 13.9897 8.57156 13.9897 8.57156C13.686 7.6855 14.7064 6.2133 14.7064 6.2133C14.7064 6.2133 15.6357 7.44937 19.6279 7.47747C19.6279 7.47747 23.5176 7.26867 22.8654 6.85032C25.024 6.86398 22.7135 6.61647 23.157 6.81691C23.9117 7.1563 23.6482 8.89197 23.6482 8.89197C23.9117 7.64678 24.8903 7.58528 24.8903 7.58528C24.8903 7.58528 25.3778 2.09811 21.3431 1.04123Z" fill="#231F20"/>
<path d="M22.2086 18.625L21.2892 31.7655L23.5138 43.7367L23.9208 22.4957L22.2086 18.625Z" fill="#D7EEFF"/>
<path d="M15.2446 18.7837L16.1641 31.9242L13.9395 43.8954L12.0535 36.1487L15.2446 18.7837Z" fill="#D7EEFF"/>
<path d="M20.4313 27.0891C19.5739 27.088 18.7457 27.4005 18.1026 27.9676C17.4596 27.4005 16.6314 27.088 15.774 27.0891C13.8265 27.0891 12.7043 28.0602 12.9746 30.6151C13.2137 32.8724 16.1004 35.0644 17.4466 35.9717C17.6477 36.1078 17.8849 36.1806 18.1277 36.1806C18.3705 36.1806 18.6077 36.1078 18.8087 35.9717C20.142 35.0606 22.9922 32.8732 23.2306 30.6189C23.5009 28.0602 22.3788 27.0891 20.4313 27.0891Z" fill="#FF6161"/>
<path d="M23.2306 30.6152C23.4842 28.2197 22.5138 27.2168 20.7873 27.1006C21.1545 27.4627 21.459 27.8832 21.6885 28.345C22.2352 29.4186 22.059 30.7071 21.3757 31.3517C20.6924 31.9963 20.7189 32.7669 19.7296 33.2453C19.1981 33.5027 17.5103 33.7327 16.417 33.5672C15.3236 33.4017 14.2303 31.5081 13.4885 31.4883C13.3943 31.4864 13.3009 31.5067 13.2159 31.5476C13.9851 33.4563 16.2871 35.192 17.4465 35.9718C17.6476 36.1079 17.8848 36.1806 18.1276 36.1806C18.3704 36.1806 18.6076 36.1079 18.8086 35.9718C20.1389 35.0591 22.9922 32.8694 23.2306 30.6152Z" fill="#FF6161"/>
<path d="M13.2866 30.5119C13.2866 30.5119 12.9875 28.2083 14.1848 27.714C15.3822 27.2197 16.1893 27.4407 16.6843 27.714C17.1794 27.9873 17.5036 28.859 16.6972 28.9759C15.8909 29.0928 13.2866 30.5119 13.2866 30.5119Z" fill="#FF6161"/>
<path d="M18.8375 28.2881C18.7938 28.2766 18.7544 28.2529 18.7237 28.2197C18.6931 28.1865 18.6726 28.1453 18.6646 28.1009C18.6566 28.0564 18.6615 28.0106 18.6787 27.9689C18.6959 27.9271 18.7246 27.8912 18.7616 27.8652C19.0956 27.6329 19.6362 27.3572 20.2596 27.4203C21.3036 27.525 21.0189 28.3063 20.3864 28.462C19.987 28.5622 19.2877 28.4103 18.8375 28.2881Z" fill="#FF6161"/>
<path d="M23.3786 30.95H18.738L18.3979 31.5787L17.7381 28.5204L16.874 32.7722L16.0609 29.7701L15.5886 30.95H13.1855V31.0381C13.2045 31.0677 13.2243 31.0161 13.244 31.0457H15.7184L16.0388 30.0974L16.8998 33.2103L17.735 28.941L18.3166 31.8611L18.8481 31.0457L23.305 31.0571C23.3406 30.9986 23.3406 31.0092 23.3786 30.95Z" fill="white"/>
<path d="M24.8569 26.1879H24.8463C24.8178 26.1877 24.7903 26.177 24.7691 26.1578C24.748 26.1386 24.7346 26.1123 24.7317 26.0839C24.7263 26.0376 24.7203 25.97 24.7134 25.8835C24.6626 25.2882 24.5441 23.8957 24.1144 22.4319C23.8023 21.3689 23.3946 20.5003 22.895 19.8306C22.7359 19.6161 22.5594 19.4149 22.3673 19.2293C22.1593 19.0299 21.9301 18.8538 21.684 18.7039C21.5914 18.647 21.498 18.5961 21.4053 18.552C21.4053 18.552 21.3218 18.5467 21.3203 18.5445C21.236 18.4397 21.2968 18.3698 21.2444 18.2468C21.4388 18.3162 21.6262 18.4039 21.804 18.5088C22.9307 19.1921 23.778 20.4927 24.3323 22.3688C24.7689 23.8547 24.8888 25.2647 24.9397 25.866C24.9465 25.9503 24.9519 26.0178 24.9572 26.0619C24.96 26.0918 24.9511 26.1216 24.9324 26.1451C24.9138 26.1686 24.8867 26.1839 24.8569 26.1879Z" fill="#2B3990"/>
<path d="M25.0139 26.6019C25.2853 26.5079 25.4291 26.2116 25.335 25.9402C25.241 25.6688 24.9447 25.525 24.6733 25.619C24.4019 25.7131 24.2581 26.0093 24.3522 26.2807C24.4462 26.5521 24.7424 26.6959 25.0139 26.6019Z" fill="#006989"/>
<path d="M24.8433 26.4255C25.0169 26.4255 25.1576 26.2848 25.1576 26.1112C25.1576 25.9376 25.0169 25.7969 24.8433 25.7969C24.6697 25.7969 24.5289 25.9376 24.5289 26.1112C24.5289 26.2848 24.6697 26.4255 24.8433 26.4255Z" fill="white"/>
<path d="M12.0998 31.1451C12.1142 31.159 12.1312 31.17 12.1498 31.1774C12.1685 31.1848 12.1884 31.1884 12.2084 31.1881C12.2285 31.1877 12.2483 31.1834 12.2666 31.1754C12.285 31.1673 12.3016 31.1557 12.3155 31.1413L12.4218 31.0319C12.436 31.0178 12.4473 31.001 12.455 30.9825C12.4627 30.964 12.4667 30.9442 12.4667 30.9241C12.4667 30.9041 12.4627 30.8842 12.455 30.8657C12.4473 30.8472 12.436 30.8304 12.4218 30.8163C12.4076 30.8019 12.3908 30.7906 12.3722 30.7828C12.3536 30.775 12.3337 30.771 12.3136 30.771C12.2934 30.771 12.2735 30.775 12.2549 30.7828C12.2364 30.7906 12.2195 30.8019 12.2054 30.8163L12.0998 30.9256C12.085 30.9398 12.0732 30.9568 12.0652 30.9757C12.0571 30.9945 12.053 31.0148 12.053 31.0353C12.053 31.0558 12.0571 31.0761 12.0652 31.095C12.0732 31.1138 12.085 31.1309 12.0998 31.1451Z" fill="#006989"/>
<path d="M10.4356 31.2166C10.1615 31.2105 9.9671 31.0548 9.74768 30.6684C9.74354 30.6622 9.74076 30.6552 9.73951 30.6479C9.73827 30.6406 9.73859 30.6331 9.74045 30.626C9.74232 30.6188 9.74569 30.6121 9.75034 30.6063C9.75498 30.6005 9.76081 30.5958 9.76742 30.5924C9.77361 30.5884 9.78057 30.5857 9.78785 30.5846C9.79514 30.5834 9.80259 30.5837 9.80973 30.5856C9.81687 30.5874 9.82355 30.5908 9.82934 30.5953C9.83512 30.5999 9.8399 30.6057 9.84334 30.6122C10.078 31.0245 10.2518 31.1072 10.4568 31.1072C11.5912 31.1072 12.6443 28.0542 12.689 27.9244C12.6936 27.911 12.7032 27.9 12.7159 27.8937C12.7286 27.8874 12.7432 27.8865 12.7566 27.891C12.77 27.8955 12.7811 27.9052 12.7873 27.9179C12.7936 27.9305 12.7946 27.9452 12.79 27.9586C12.6769 28.2919 11.6466 31.2135 10.4568 31.2143L10.4356 31.2166Z" fill="#77C0E0"/>
<path d="M11.5418 31.4367C11.4812 31.4347 11.4211 31.4242 11.3634 31.4056C10.2306 31.0426 10.138 27.9464 10.1311 27.5948C10.1302 27.5873 10.1309 27.5796 10.1332 27.5723C10.1355 27.5651 10.1393 27.5584 10.1443 27.5527C10.1494 27.547 10.1556 27.5424 10.1625 27.5393C10.1695 27.5362 10.177 27.5345 10.1846 27.5345C10.1923 27.5345 10.1998 27.5362 10.2067 27.5393C10.2137 27.5424 10.2199 27.547 10.225 27.5527C10.23 27.5584 10.2338 27.5651 10.2361 27.5723C10.2384 27.5796 10.2391 27.5873 10.2382 27.5948C10.2382 27.7323 10.3141 30.9599 11.396 31.3053C11.5912 31.3684 11.7817 31.3425 12.131 31.0214C12.1411 31.0113 12.1547 31.0057 12.169 31.0057C12.1832 31.0057 12.1969 31.0113 12.2069 31.0214C12.217 31.0314 12.2227 31.0451 12.2227 31.0593C12.2227 31.0736 12.217 31.0872 12.2069 31.0973C11.9442 31.3365 11.7445 31.4412 11.5418 31.4367Z" fill="#77C0E0"/>
<path d="M15.4892 18.5232C15.6005 18.4719 15.7146 18.4268 15.8309 18.3881C15.7488 18.5421 15.6389 18.6795 15.5067 18.7935C15.2698 18.9119 15.04 19.0442 14.8188 19.1898C14.2248 19.5741 13.7215 20.0829 13.3436 20.681C12.7149 21.6795 12.4074 22.9505 12.1675 24.6094C12.1627 24.6422 12.1452 24.6717 12.1187 24.6915C12.0922 24.7112 12.059 24.7197 12.0263 24.715C11.9935 24.7102 11.964 24.6927 11.9442 24.6662C11.9244 24.6397 11.916 24.6065 11.9207 24.5737C12.1758 22.8115 12.494 21.681 12.9837 20.7942C13.2799 20.2573 13.6721 19.7794 14.1408 19.3842C14.5525 19.042 15.0056 18.7528 15.4892 18.5232Z" fill="#2B3990"/>
<path d="M12.6982 28.1681C12.6821 28.1681 12.6661 28.165 12.6511 28.159C12.6204 28.1464 12.596 28.1221 12.5832 28.0915C12.5704 28.0609 12.5702 28.0265 12.5828 27.9958C13.0847 26.7719 12.9495 25.7704 12.6587 25.2404C12.4947 24.9436 12.2685 24.7568 12.0217 24.715C11.846 24.689 11.6667 24.7014 11.4963 24.7515C11.3259 24.8016 11.1684 24.8881 11.0347 25.0051C10.5267 25.4454 10.2754 26.3505 10.3134 27.623C10.3151 27.6401 10.3133 27.6574 10.308 27.6738C10.3027 27.6902 10.2941 27.7054 10.2828 27.7183C10.2714 27.7312 10.2575 27.7417 10.2419 27.749C10.2263 27.7563 10.2094 27.7603 10.1921 27.7608C10.1749 27.7612 10.1578 27.7581 10.1418 27.7517C10.1259 27.7453 10.1114 27.7356 10.0993 27.7233C10.0873 27.711 10.0779 27.6964 10.0717 27.6803C10.0656 27.6642 10.0628 27.647 10.0636 27.6298C10.0248 26.2632 10.2959 25.3141 10.8707 24.816C11.0325 24.676 11.2226 24.5724 11.428 24.5124C11.6335 24.4524 11.8494 24.4374 12.0612 24.4683C12.3839 24.5245 12.6724 24.7553 12.8743 25.1197C13.2904 25.8714 13.2676 26.9822 12.8128 28.0907C12.8036 28.1135 12.7878 28.1331 12.7674 28.1469C12.7469 28.1607 12.7228 28.1681 12.6982 28.1681Z" fill="#2B3990"/>
<path d="M9.83124 30.745C9.81331 30.754 9.79378 30.7593 9.77379 30.7607C9.75379 30.762 9.73372 30.7594 9.71473 30.753C9.69575 30.7466 9.67822 30.7365 9.66316 30.7233C9.6481 30.71 9.63581 30.6939 9.627 30.6759L9.55943 30.54C9.55033 30.5221 9.54487 30.5026 9.54339 30.4825C9.5419 30.4625 9.54441 30.4423 9.55076 30.4233C9.55712 30.4042 9.5672 30.3866 9.58042 30.3714C9.59363 30.3563 9.60973 30.3439 9.62776 30.335C9.64573 30.326 9.66532 30.3205 9.6854 30.3191C9.70548 30.3177 9.72564 30.3202 9.74472 30.3267C9.7638 30.3331 9.7814 30.3433 9.79652 30.3566C9.81163 30.3699 9.82395 30.386 9.83276 30.4041L9.90033 30.54C9.90941 30.558 9.91482 30.5776 9.91626 30.5977C9.91769 30.6177 9.91512 30.6379 9.90869 30.657C9.90226 30.6761 9.8921 30.6937 9.87881 30.7088C9.86551 30.7239 9.84934 30.7362 9.83124 30.745Z" fill="#006989"/>
<path d="M35.3081 40.1037C35.1615 40.3899 34.943 40.6331 34.6739 40.8092C34.4049 40.9854 34.0946 41.0884 33.7736 41.1082C32.5262 41.1841 30.2051 41.2388 27.9212 40.8425C25.8954 40.4909 23.9195 39.8951 22.037 39.0681L22.8957 37.3362C22.8957 37.3362 28.6608 37.1426 30.792 36.6954C32.7889 36.277 35.8714 37.0887 35.7872 38.4766C35.7399 39.0459 35.5769 39.5996 35.3081 40.1037Z" fill="#FFC7AE"/>
<path d="M20.8473 36.4235C19.9628 35.9497 19.2885 35.4031 19.2529 35.8214C19.2172 36.2398 20.2437 37.1349 20.2437 37.1349C20.2437 37.1349 19.9195 37.302 18.6037 36.9292C17.2879 36.5564 17.2325 35.9323 16.824 35.9376C16.4155 35.9429 16.7686 36.4736 17.1171 36.892C17.3509 37.1729 17.7313 37.5108 18.3615 37.8205C18.0039 37.7924 17.4367 37.7196 17.0168 37.5297C16.3548 37.2306 16.1748 36.9087 15.9539 37.0286C15.7329 37.1486 16.2834 37.7932 16.6873 38.062C16.7741 38.1171 16.8647 38.1661 16.9584 38.2085C16.6448 38.0931 16.3616 37.9868 16.2492 37.9375C15.9455 37.8046 15.865 37.7552 15.8142 37.9261C15.7633 38.0969 16.335 38.6906 17.3023 39.0316C18.2696 39.3725 18.4412 39.4233 18.4412 39.4233C18.4412 39.4233 16.9394 39.1196 16.7405 39.1409C16.5415 39.1621 16.8096 39.6633 17.089 39.7642C17.6736 39.9761 18.9408 40.1932 19.8884 40.3565C20.8359 40.5197 22.7022 39.7688 22.7022 39.7688L22.854 39.3132C22.99 38.9113 23.0627 38.4908 23.0696 38.0665L23.0734 37.8524C23.0734 37.8524 21.7334 36.898 20.8473 36.4235Z" fill="#FFC7AE"/>
<path d="M23.0681 36.7682C23.0681 36.7682 21.977 40.7338 22.1175 40.9213C22.2579 41.1089 29.0753 42.5401 31.7031 42.2584C34.3309 41.9767 35.9269 40.0998 36.0203 38.598C36.1136 37.0962 33.1108 27.4756 31.1868 24.4758C29.2629 21.4759 26.6313 20.6271 26.6313 20.6271L27.2766 25.7665C27.6815 29.0488 28.6477 32.2371 30.133 35.1919C30.423 35.7659 30.5885 36.179 30.4799 36.2078C30.1072 36.2989 23.0681 36.7682 23.0681 36.7682Z" fill="#D7EEFF"/>
<path d="M1.05646 40.1037C1.20275 40.39 1.42114 40.6332 1.69009 40.8094C1.95904 40.9855 2.26926 41.0885 2.59016 41.1082C3.83838 41.1841 6.15868 41.2388 8.44329 40.8425C10.4684 40.4907 12.4435 39.8949 14.3253 39.0681L13.4666 37.3362C13.4666 37.3362 7.7015 37.1426 5.57025 36.6954C3.57264 36.277 0.49005 37.0887 0.575087 38.4766C0.623032 39.0461 0.786842 39.5998 1.05646 40.1037Z" fill="#FFC7AE"/>
<path d="M15.5446 35.7492C16.4034 35.2299 17.0495 34.6498 17.1087 35.0659C17.1679 35.482 16.1862 36.428 16.1862 36.428C16.1862 36.428 16.5188 36.5798 17.8133 36.1387C19.1079 35.6976 19.1321 35.0757 19.5399 35.0575C19.9476 35.0393 19.6234 35.589 19.2969 36.0256C19.0775 36.3179 18.7146 36.6755 18.1011 37.0126C18.4572 36.9671 19.019 36.8646 19.429 36.6535C20.0751 36.3209 20.2376 35.9899 20.4654 36.0992C20.6932 36.2086 20.1761 36.879 19.7859 37.1683C19.7022 37.2278 19.6144 37.2814 19.5232 37.3285C19.8269 37.1979 20.1078 37.0764 20.2171 37.0248C20.5148 36.8729 20.5914 36.8228 20.6507 36.9914C20.7099 37.1599 20.1701 37.781 19.2217 38.1712C18.2734 38.5615 18.1049 38.6185 18.1049 38.6185C18.1049 38.6185 19.5892 38.2388 19.7889 38.2495C19.9886 38.2601 19.7471 38.7749 19.4731 38.8895C18.8998 39.131 17.6455 39.4126 16.7071 39.6245C15.7686 39.8363 13.8674 39.1811 13.8674 39.1811L13.6913 38.7369C13.5355 38.3424 13.4416 37.9262 13.4126 37.5031L13.3975 37.289C13.3975 37.289 14.6852 36.2647 15.5446 35.7492Z" fill="#FFC7AE"/>
<path d="M13.2957 36.7682C13.2957 36.7682 14.3875 40.7338 14.2463 40.9213C14.105 41.1089 7.28918 42.5401 4.66062 42.2584C2.03206 41.9767 0.437618 40.0998 0.34347 38.598C0.249321 37.0962 3.25295 27.4756 5.17692 24.4758C7.10088 21.4759 9.73247 20.6271 9.73247 20.6271L9.0871 25.7665C8.68264 29.0489 7.71644 32.2372 6.23077 35.1919C5.94073 35.7659 5.77521 36.179 5.88455 36.2078C6.25658 36.2989 13.2957 36.7682 13.2957 36.7682Z" fill="#D7EEFF"/>
<path fill-rule="evenodd" clip-rule="evenodd" d="M22.4348 3.34945C21.1919 3.00626 19.8815 3.49143 19.0098 4.05556C19.0053 4.15518 18.9617 4.24902 18.8886 4.31679C18.8154 4.38456 18.7185 4.42082 18.6188 4.41772C17.4321 4.41772 16.322 3.91054 15.1452 3.87941C15.081 3.87701 15.0167 3.88031 14.9531 3.88928C14.8445 3.93483 14.736 3.98494 14.6281 4.04113C14.5302 4.29286 14.4684 4.55716 14.4444 4.8262C14.4323 5.10079 14.4361 5.37585 14.4558 5.65C15.1057 6.02963 15.8354 6.27335 16.5263 6.58541C16.58 6.61076 16.6281 6.64663 16.6678 6.69091C16.7074 6.73519 16.7377 6.78696 16.757 6.84318C16.7762 6.89939 16.784 6.95889 16.7799 7.01817C16.7757 7.07744 16.7597 7.13528 16.7328 7.18826C18.8025 8.3112 22.4758 9.81454 23.8501 6.76535C24.5593 5.19141 23.8167 3.73135 22.4348 3.34945Z" fill="#231F20"/>
<path d="M28.5978 48.558L28.4566 50.138L25.0718 50.3255L25.0057 49.1373L28.5978 48.558Z" fill="#F79D21"/>
<path d="M12.3982 48.558L12.257 50.138L8.87218 50.3255L8.80688 49.1373L12.3982 48.558Z" fill="#F79D21"/>
<path d="M17.8612 2.50356C17.782 2.42266 17.7288 2.31992 17.7085 2.20856C17.6882 2.0972 17.7017 1.98232 17.7473 1.87869C17.9378 1.45199 18.3729 0.774726 19.2521 0.629708C20.7334 0.385985 21.0182 1.11336 21.6499 1.05717C21.7775 1.04836 21.9018 1.01317 22.0151 0.953843C22.1285 0.894511 22.2282 0.812321 22.3081 0.712467C22.3081 0.712467 22.3674 1.37378 22.1889 1.44667C22.0287 1.51197 22.7067 1.16499 22.9178 0.793707C22.9406 0.755655 22.9578 0.714473 22.9687 0.671467C23.0727 0.259948 23.138 1.72456 22.7462 1.88628C22.9109 1.72868 23.0649 1.56025 23.2071 1.38213C23.2071 1.38213 23.7386 3.41543 22.0272 3.53615C20.4275 3.65156 19.013 3.68497 17.8612 2.50356Z" fill="#231F20"/>
</svg>
